# Blender v2.77 (sub 0) OBJ File: ''
# www.blender.org
mtllib table.mtl
o Cube_Cube.001
v -5.348341 -0.528952 6.723920
v -5.348341 1.923559 6.723920
v -5.348341 -0.528952 -5.538635
v -5.348341 1.923559 -5.538635
v 6.914214 -0.528952 6.723920
v 6.914214 1.923559 6.723920
v 6.914214 -0.528952 -5.538635
v 6.914214 1.923559 -5.538635
vn -0.577300 0.577300 0.577300
vn -0.577300 0.577300 -0.577300
vn -0.577300 -0.577300 -0.577300
vn -0.577300 -0.577300 0.577300
vn 0.577300 0.577300 -0.577300
vn 0.577300 -0.577300 -0.577300
vn 0.577300 0.577300 0.577300
vn 0.577300 -0.577300 0.577300
usemtl Material.001
s 1
f 2//1 4//2 3//3 1//4
f 4//2 8//5 7//6 3//3
f 8//5 6//7 5//8 7//6
f 6//7 2//1 1//4 5//8
f 1//4 3//3 7//6 5//8
f 6//7 8//5 4//2 2//1
